<svg id='Copy_to_Clipboard_24' width='24' height='24' viewBox='0 0 24 24' xmlns='http://www.w3.org/2000/svg' xmlns:xlink='http://www.w3.org/1999/xlink'><rect width='24' height='24' stroke='none' fill='#000000' opacity='0'/>


<g transform="matrix(0.95 0 0 0.95 12 12)" >
<path style="stroke: none; stroke-width: 1; stroke-dasharray: none; stroke-linecap: butt; stroke-dashoffset: 0; stroke-linejoin: miter; stroke-miterlimit: 4; fill: rgb(0,0,0); fill-rule: nonzero; opacity: 1;" transform=" translate(-12, -11.5)" d="M 10 1 C 8.696 1 7.5965938 1.837 7.1835938 3 L 5 3 C 3.895 3 3 3.895 3 5 L 3 16 C 3 17.105 3.895 18 5 18 L 9 18 L 9 20 L 9 22 L 11 22 L 13 22 L 13 20 L 11 20 L 11 18 L 15 18 C 16.105 18 17 17.105 17 16 L 17 12 L 19 12 L 19 14 L 21 14 L 21 12 L 21 10 L 19 10 L 17 10 L 17 5 C 17 3.895 16.105 3 15 3 L 12.816406 3 C 12.403406 1.837 11.304 1 10 1 z M 10 3 C 10.552 3 11 3.448 11 4 C 11 4.552 10.552 5 10 5 L 15 5 L 15 16 L 5 16 L 5 5 L 10 5 C 9.448 5 9 4.552 9 4 C 9 3.448 9.448 3 10 3 z M 9 10 L 9 12 L 9 14 L 11 14 L 11 12 L 13 12 L 13 10 L 11 10 L 9 10 z M 19 18 L 19 20 L 17 20 L 17 22 L 19 22 L 21 22 L 21 20 L 21 18 L 19 18 z" stroke-linecap="round" />
</g>
</svg>